<?xml version="1.0" encoding="UTF-8"?>
<svg id="Layer_1" data-name="Layer 1" xmlns="http://www.w3.org/2000/svg" viewBox="0 0 344.47 257.3">
  <path d="m151.59,146.19c5.22-9.54,12.55-17.23,22-23.08,9.45-5.85,20.12-8.77,32-8.77v14.85c-7.56,0-14.63,1.4-21.2,4.18-6.57,2.79-12.29,6.62-17.14,11.48-4.86,4.86-8.69,10.58-11.48,17.15-2.79,6.57-4.18,13.64-4.18,21.2v61.71c0,4.09-3.32,7.41-7.41,7.41h-7.44v-127.97c0-5.52,4.48-10,10-10h4.85v31.86Z"/>
  <path d="m137.97,252.3h-7.43c-4.1,0-7.43-3.32-7.43-7.43v-24.43c-5.22,9.54-12.6,17.24-22.14,23.08-9.54,5.85-20.25,8.78-32.13,8.78-9.54,0-18.5-1.8-26.87-5.4-8.37-3.6-15.66-8.55-21.87-14.85-6.21-6.3-11.12-13.63-14.71-22-3.6-8.37-5.4-17.32-5.4-26.86s1.8-18.5,5.4-26.87c3.6-8.37,8.5-15.66,14.71-21.87s13.5-11.11,21.87-14.71c8.37-3.6,17.32-5.4,26.87-5.4s18.45,1.8,26.73,5.4c8.28,3.6,15.53,8.46,21.74,14.58,6.21,6.12,11.16,13.32,14.85,21.6,3.69,8.28,5.62,17.1,5.81,26.46v69.93Zm-69.12-14.85c7.56,0,14.62-1.44,21.2-4.32,6.57-2.88,12.28-6.75,17.14-11.61,4.86-4.86,8.73-10.57,11.61-17.15,2.88-6.57,4.32-13.64,4.32-21.19s-1.44-14.62-4.32-21.2c-2.88-6.57-6.75-12.28-11.61-17.15-4.86-4.86-10.58-8.68-17.14-11.48-6.57-2.79-13.64-4.18-21.2-4.18s-14.36,1.4-20.92,4.18c-6.57,2.79-12.29,6.62-17.15,11.48-4.86,4.86-8.73,10.58-11.61,17.15-2.88,6.57-4.32,13.64-4.32,21.2s1.44,14.62,4.32,21.19c2.88,6.57,6.75,12.29,11.61,17.15,4.86,4.86,10.57,8.73,17.15,11.61,6.57,2.88,13.54,4.32,20.92,4.32Z"/>
  <path d="m275.62,119.33c9.54,0,18.5,1.8,26.87,5.4,8.37,3.6,15.66,8.5,21.87,14.71,6.21,6.21,11.11,13.5,14.71,21.87,3.6,8.37,5.4,17.33,5.4,26.87s-1.8,18.49-5.4,26.86c-3.6,8.37-8.5,15.71-14.71,22-6.21,6.3-13.5,11.25-21.87,14.85-8.37,3.6-17.33,5.4-26.87,5.4s-17.87-1.71-26.05-5.13c-8.19-3.42-15.39-8.1-21.6-14.04s-11.21-12.91-14.98-20.92c-3.78-8.01-5.85-16.6-6.21-25.79l-.25-95.17c-.01-4.1,3.31-7.43,7.42-7.43h0c4.1,0,7.42,3.32,7.42,7.42v33.67c0,6.39,7.61,9.86,12.33,5.56,2.97-2.71,6.24-5.16,9.82-7.35,9.54-5.85,20.25-8.77,32.13-8.77Zm0,123.12c7.56,0,14.62-1.44,21.2-4.32,6.57-2.88,12.28-6.75,17.14-11.61,4.86-4.86,8.73-10.57,11.61-17.15,2.88-6.57,4.32-13.64,4.32-21.19s-1.44-14.62-4.32-21.2c-2.88-6.57-6.75-12.28-11.61-17.15-4.86-4.86-10.58-8.68-17.14-11.48-6.57-2.79-13.64-4.18-21.2-4.18s-14.63,1.4-21.2,4.18c-6.57,2.79-12.29,6.62-17.14,11.48-4.86,4.86-8.73,10.58-11.61,17.15-2.88,6.57-4.32,13.64-4.32,21.2s1.44,14.62,4.32,21.19c2.88,6.57,6.75,12.29,11.61,17.15s10.57,8.73,17.14,11.61c6.57,2.88,13.63,4.32,21.2,4.32Z"/>
</svg>